<?xml version="1.0" encoding="utf-8"?>
<!-- Generator: Adobe Illustrator 16.0.0, SVG Export Plug-In . SVG Version: 6.00 Build 0)  -->
<!DOCTYPE svg PUBLIC "-//W3C//DTD SVG 1.1//EN" "http://www.w3.org/Graphics/SVG/1.1/DTD/svg11.dtd">
<svg version="1.1" id="Layer_1" xmlns="http://www.w3.org/2000/svg" xmlns:xlink="http://www.w3.org/1999/xlink" x="0px" y="0px"
	 width="347.667px" height="347.669px" viewBox="0 0 347.667 347.669" enable-background="new 0 0 347.667 347.669"
	 xml:space="preserve">
<path fill="#FFFFFF" d="M264.236,212.405c-11.192,9.344-24.055,14.018-38.591,14.018c-16.67,0-30.861-5.885-42.57-17.652
	c-11.768-11.71-17.651-25.899-17.651-42.569c0-16.614,5.884-30.774,17.651-42.484c11.709-11.767,25.9-17.651,42.57-17.651
	c14.593,0,27.457,4.672,38.591,14.017l-16.008,16.094c-6.692-5.019-14.22-7.528-22.583-7.528c-10.44,0-19.326,3.664-26.65,10.989
	c-7.325,7.327-10.988,16.18-10.988,26.564c0,10.44,3.663,19.324,10.988,26.649c7.324,7.325,16.21,10.988,26.65,10.988
	c8.363,0,15.863-2.509,22.497-7.527L264.236,212.405z"/>
<path fill="#C4B1C0" d="M177.843,226.422H155.26v-67.75l-30.024,30.111l-30.111-30.111v67.75H72.542V106.066l52.694,52.607
	l52.607-52.607V226.422z"/>
<g>
	<path fill="#FFFFFF" d="M167.375,330.721c-86.846,0-157.5-70.654-157.5-157.5s70.654-157.5,157.5-157.5s157.5,70.654,157.5,157.5
		S254.221,330.721,167.375,330.721z M167.375,20.721c-84.089,0-152.5,68.411-152.5,152.5s68.411,152.5,152.5,152.5
		s152.5-68.411,152.5-152.5S251.464,20.721,167.375,20.721z"/>
</g>
</svg>
